<svg width="32" height="32" viewBox="0 0 32 32" fill="none" xmlns="http://www.w3.org/2000/svg">
  <!-- Background circle -->
  <circle cx="16" cy="16" r="16" fill="#0f172a"/>

  <!-- Outer glow -->
  <circle cx="16" cy="16" r="15" fill="none" stroke="#06b6d4" stroke-width="0.5" opacity="0.6"/>

  <!-- Flask body -->
  <path d="M12 20L10 26C9.8 26.6 10.2 27 10.8 27H21.2C21.8 27 22.2 26.6 22 26L20 20V12H19V8C19 7.4 18.6 7 18 7H14C13.4 7 13 7.4 13 8V12H12V20Z" fill="#06b6d4"/>

  <!-- Flask neck -->
  <rect x="14" y="7" width="4" height="5" fill="#0891b2"/>

  <!-- Liquid in flask -->
  <path d="M12.5 20.5L10.8 25.5H21.2L19.5 20.5V13H12.5V20.5Z" fill="#22d3ee" opacity="0.8"/>

  <!-- Bubbles -->
  <circle cx="15" cy="22" r="1" fill="#67e8f9" opacity="0.9"/>
  <circle cx="17.5" cy="19" r="0.8" fill="#67e8f9" opacity="0.7"/>
  <circle cx="14" cy="17" r="0.6" fill="#67e8f9" opacity="0.8"/>

  <!-- Atomic symbol overlay -->
  <circle cx="16" cy="15" r="6" fill="none" stroke="#fbbf24" stroke-width="0.8" opacity="0.6"/>
  <circle cx="16" cy="15" r="3" fill="none" stroke="#fbbf24" stroke-width="0.6" opacity="0.8"/>

  <!-- Electron dots -->
  <circle cx="22" cy="15" r="1" fill="#fbbf24" opacity="0.9"/>
  <circle cx="10" cy="15" r="1" fill="#fbbf24" opacity="0.9"/>
  <circle cx="16" cy="9" r="1" fill="#fbbf24" opacity="0.7"/>
  <circle cx="16" cy="21" r="1" fill="#fbbf24" opacity="0.7"/>

  <!-- Central nucleus -->
  <circle cx="16" cy="15" r="1.5" fill="#f59e0b"/>

  <!-- Plus symbol for combination -->
  <text x="7" y="10" font-family="Arial" font-size="6" font-weight="bold" fill="#10b981">+</text>
</svg>
